<mxfile host="app.diagrams.net" agent="Mozilla/5.0 (Windows NT 10.0; Win64; x64) AppleWebKit/537.36 (KHTML, like Gecko) Chrome/138.0.0.0 Safari/537.36" version="28.0.6">
  <diagram name="PÃ¡gina-1" id="6R_OjLi72vYt-dycN_tc">
    <mxGraphModel grid="1" page="1" gridSize="10" guides="1" tooltips="1" connect="1" arrows="1" fold="1" pageScale="1" pageWidth="827" pageHeight="1169" math="0" shadow="0">
      <root>
        <mxCell id="0" />
        <mxCell id="1" parent="0" />
        <mxCell id="eef224ag9TMszilRh1iL-1" style="edgeStyle=orthogonalEdgeStyle;rounded=1;orthogonalLoop=1;jettySize=auto;html=1;entryX=0;entryY=0.5;entryDx=0;entryDy=0;curved=0;endArrow=none;endFill=0;exitX=1;exitY=0.5;exitDx=0;exitDy=0;" edge="1" parent="1" source="eef224ag9TMszilRh1iL-25">
          <mxGeometry relative="1" as="geometry">
            <mxPoint x="657" y="265" as="targetPoint" />
          </mxGeometry>
        </mxCell>
        <mxCell id="eef224ag9TMszilRh1iL-2" value="" style="verticalLabelPosition=bottom;verticalAlign=top;html=1;shape=mxgraph.basic.rect;fillColor2=none;strokeWidth=1;size=20;indent=5;" vertex="1" parent="1">
          <mxGeometry x="50" y="60" width="480" height="570" as="geometry" />
        </mxCell>
        <mxCell id="eef224ag9TMszilRh1iL-3" value="&lt;span style=&quot;font-size: 12px; font-weight: 400; text-wrap-mode: wrap;&quot;&gt;&amp;lt;&amp;lt;structured&amp;gt;&amp;gt;&lt;/span&gt;&lt;div&gt;Solicitud&lt;/div&gt;" style="text;strokeColor=none;fillColor=none;html=1;fontSize=24;fontStyle=1;verticalAlign=middle;align=center;" vertex="1" parent="1">
          <mxGeometry x="205" y="80" width="170" height="40" as="geometry" />
        </mxCell>
        <mxCell id="eef224ag9TMszilRh1iL-4" value="&lt;div&gt;&amp;lt;&amp;lt;part&amp;gt;&amp;gt;&lt;br&gt;D&lt;span style=&quot;background-color: transparent; color: light-dark(rgb(0, 0, 0), rgb(255, 255, 255));&quot;&gt;estalles:&amp;nbsp;&lt;/span&gt;&lt;/div&gt;&lt;div&gt;&lt;span style=&quot;background-color: transparent; color: light-dark(rgb(0, 0, 0), rgb(255, 255, 255));&quot;&gt;TextoSolicitud&lt;/span&gt;&lt;/div&gt;" style="html=1;whiteSpace=wrap;" vertex="1" parent="1">
          <mxGeometry x="90" y="350" width="110" height="60" as="geometry" />
        </mxCell>
        <mxCell id="eef224ag9TMszilRh1iL-6" value="&amp;lt;&amp;lt;part&amp;gt;&amp;gt;&lt;div&gt;FechaHora:FechaHora&amp;nbsp;&lt;/div&gt;" style="html=1;whiteSpace=wrap;" vertex="1" parent="1">
          <mxGeometry x="360" y="170" width="140" height="50" as="geometry" />
        </mxCell>
        <mxCell id="eef224ag9TMszilRh1iL-7" value="&amp;lt;&amp;lt;part&amp;gt;&amp;gt;&lt;br&gt;Estado: Estado&lt;span style=&quot;color: rgba(0, 0, 0, 0); font-family: monospace; font-size: 0px; text-align: start; text-wrap-mode: nowrap;&quot;&gt;%3CmxGraphModel%3E%3Croot%3E%3CmxCell%20id%3D%220%22%2F%3E%3CmxCell%20id%3D%221%22%20parent%3D%220%22%2F%3E%3CmxCell%20id%3D%222%22%20value%3D%22Contrato%22%20style%3D%22html%3D1%3BwhiteSpace%3Dwrap%3B%22%20vertex%3D%221%22%20parent%3D%221%22%3E%3CmxGeometry%20x%3D%22130%22%20y%3D%22130%22%20width%3D%22110%22%20height%3D%2250%22%20as%3D%22geometry%22%2F%3E%3C%2FmxCell%3E%3C%2Froot%3E%3C%2FmxGraphModel%3E&lt;/span&gt;" style="html=1;whiteSpace=wrap;" vertex="1" parent="1">
          <mxGeometry x="90" y="170" width="110" height="50" as="geometry" />
        </mxCell>
        <mxCell id="eef224ag9TMszilRh1iL-8" value="" style="text;strokeColor=none;fillColor=none;align=left;verticalAlign=middle;spacingTop=-1;spacingLeft=4;spacingRight=4;rotatable=0;labelPosition=right;points=[];portConstraint=eastwest;" vertex="1" parent="1">
          <mxGeometry x="360" y="220" width="20" height="14" as="geometry" />
        </mxCell>
        <mxCell id="eef224ag9TMszilRh1iL-9" value="" style="rounded=0;whiteSpace=wrap;html=1;" vertex="1" parent="1">
          <mxGeometry x="130" y="212" width="30" height="30" as="geometry" />
        </mxCell>
        <mxCell id="eef224ag9TMszilRh1iL-10" value="" style="rounded=0;whiteSpace=wrap;html=1;" vertex="1" parent="1">
          <mxGeometry x="130" y="330" width="30" height="30" as="geometry" />
        </mxCell>
        <mxCell id="eef224ag9TMszilRh1iL-11" value="" style="endArrow=none;html=1;rounded=0;entryX=0.5;entryY=1;entryDx=0;entryDy=0;exitX=0.5;exitY=0;exitDx=0;exitDy=0;" edge="1" parent="1" source="eef224ag9TMszilRh1iL-10" target="eef224ag9TMszilRh1iL-9">
          <mxGeometry width="50" height="50" relative="1" as="geometry">
            <mxPoint x="210" y="320" as="sourcePoint" />
            <mxPoint x="260" y="270" as="targetPoint" />
          </mxGeometry>
        </mxCell>
        <mxCell id="eef224ag9TMszilRh1iL-15" value="" style="rounded=0;whiteSpace=wrap;html=1;" vertex="1" parent="1">
          <mxGeometry x="334" y="180" width="30" height="30" as="geometry" />
        </mxCell>
        <mxCell id="eef224ag9TMszilRh1iL-16" value="" style="endArrow=none;html=1;rounded=0;exitX=1;exitY=0.5;exitDx=0;exitDy=0;entryX=0;entryY=0.5;entryDx=0;entryDy=0;" edge="1" parent="1" source="eef224ag9TMszilRh1iL-17" target="eef224ag9TMszilRh1iL-15">
          <mxGeometry width="50" height="50" relative="1" as="geometry">
            <mxPoint x="220" y="194.55" as="sourcePoint" />
            <mxPoint x="334" y="194.55" as="targetPoint" />
          </mxGeometry>
        </mxCell>
        <mxCell id="eef224ag9TMszilRh1iL-17" value="" style="rounded=0;whiteSpace=wrap;html=1;" vertex="1" parent="1">
          <mxGeometry x="190" y="180" width="30" height="30" as="geometry" />
        </mxCell>
        <mxCell id="eef224ag9TMszilRh1iL-25" value="" style="rounded=0;whiteSpace=wrap;html=1;" vertex="1" parent="1">
          <mxGeometry x="510" y="250" width="30" height="30" as="geometry" />
        </mxCell>
        <mxCell id="eef224ag9TMszilRh1iL-26" value="&lt;font style=&quot;vertical-align: inherit;&quot;&gt;&lt;font style=&quot;vertical-align: inherit;&quot;&gt;&amp;lt;&amp;lt;port&amp;gt;&amp;gt;&lt;/font&gt;&lt;/font&gt;&lt;div&gt;interfazCliente : Cliente&amp;nbsp;&lt;/div&gt;" style="html=1;whiteSpace=wrap;" vertex="1" parent="1">
          <mxGeometry x="670" y="240" width="120" height="50" as="geometry" />
        </mxCell>
        <mxCell id="eef224ag9TMszilRh1iL-27" value="" style="rounded=0;whiteSpace=wrap;html=1;" vertex="1" parent="1">
          <mxGeometry x="650" y="250" width="30" height="30" as="geometry" />
        </mxCell>
        <mxCell id="M2rc0H9iuzc80pS0VGJU-1" value="&lt;font style=&quot;vertical-align: inherit;&quot;&gt;&lt;font style=&quot;vertical-align: inherit;&quot;&gt;&amp;lt;&amp;lt;port&amp;gt;&amp;gt;&lt;/font&gt;&lt;/font&gt;&lt;div&gt;interfazEvento&amp;nbsp; Evento&amp;nbsp;&amp;nbsp;&lt;/div&gt;" style="html=1;whiteSpace=wrap;" vertex="1" parent="1">
          <mxGeometry x="680" y="400" width="120" height="50" as="geometry" />
        </mxCell>
        <mxCell id="M2rc0H9iuzc80pS0VGJU-2" value="&lt;font style=&quot;vertical-align: inherit;&quot;&gt;&lt;font style=&quot;vertical-align: inherit;&quot;&gt;&amp;lt;&amp;lt;port&amp;gt;&amp;gt;&lt;/font&gt;&lt;/font&gt;&lt;div&gt;interfazAdmin : Admin&amp;nbsp; &amp;nbsp;&lt;/div&gt;" style="html=1;whiteSpace=wrap;" vertex="1" parent="1">
          <mxGeometry x="670" y="120" width="120" height="50" as="geometry" />
        </mxCell>
        <mxCell id="M2rc0H9iuzc80pS0VGJU-3" value="" style="rounded=0;whiteSpace=wrap;html=1;" vertex="1" parent="1">
          <mxGeometry x="510" y="130" width="30" height="30" as="geometry" />
        </mxCell>
        <mxCell id="M2rc0H9iuzc80pS0VGJU-4" value="" style="rounded=0;whiteSpace=wrap;html=1;" vertex="1" parent="1">
          <mxGeometry x="650" y="130" width="30" height="30" as="geometry" />
        </mxCell>
        <mxCell id="M2rc0H9iuzc80pS0VGJU-5" value="" style="rounded=0;whiteSpace=wrap;html=1;" vertex="1" parent="1">
          <mxGeometry x="520" y="410" width="30" height="30" as="geometry" />
        </mxCell>
        <mxCell id="M2rc0H9iuzc80pS0VGJU-6" value="" style="rounded=0;whiteSpace=wrap;html=1;" vertex="1" parent="1">
          <mxGeometry x="660" y="410" width="30" height="30" as="geometry" />
        </mxCell>
        <mxCell id="M2rc0H9iuzc80pS0VGJU-7" value="&lt;span style=&quot;font-weight: normal;&quot;&gt;&amp;lt;&amp;lt;note&amp;gt;&amp;gt;&lt;/span&gt;&lt;div&gt;&lt;span style=&quot;font-weight: 400;&quot;&gt;enviarSolicitud&lt;/span&gt;&lt;/div&gt;" style="html=1;whiteSpace=wrap;fontStyle=1" vertex="1" parent="1">
          <mxGeometry x="930" y="120" width="100" height="50" as="geometry" />
        </mxCell>
        <mxCell id="M2rc0H9iuzc80pS0VGJU-8" value="&amp;lt;&amp;lt;note&amp;gt;&amp;gt;&lt;div&gt;&lt;span style=&quot;background-color: transparent; color: light-dark(rgb(0, 0, 0), rgb(255, 255, 255));&quot;&gt;aprobarSolicitud&lt;/span&gt;&lt;/div&gt;&lt;div&gt;&lt;span style=&quot;background-color: transparent;&quot;&gt;rechazarSolicitud&lt;/span&gt;&lt;/div&gt;" style="html=1;whiteSpace=wrap;" vertex="1" parent="1">
          <mxGeometry x="915" y="234" width="130" height="80" as="geometry" />
        </mxCell>
        <mxCell id="M2rc0H9iuzc80pS0VGJU-9" value="&amp;lt;&amp;lt;note&amp;gt;&amp;gt;&lt;div&gt;&amp;nbsp;Crea evento&lt;/div&gt;&lt;div&gt;Eliminar evento&amp;nbsp;&lt;/div&gt;&lt;div&gt;Editar evento&lt;/div&gt;" style="html=1;whiteSpace=wrap;" vertex="1" parent="1">
          <mxGeometry x="930" y="395" width="130" height="80" as="geometry" />
        </mxCell>
        <mxCell id="M2rc0H9iuzc80pS0VGJU-22" style="rounded=0;orthogonalLoop=1;jettySize=auto;html=1;exitX=1;exitY=0.5;exitDx=0;exitDy=0;endArrow=none;endFill=0;" edge="1" parent="1" source="M2rc0H9iuzc80pS0VGJU-10" target="M2rc0H9iuzc80pS0VGJU-13">
          <mxGeometry relative="1" as="geometry" />
        </mxCell>
        <mxCell id="M2rc0H9iuzc80pS0VGJU-10" value="" style="rounded=0;whiteSpace=wrap;html=1;" vertex="1" parent="1">
          <mxGeometry x="780" y="130" width="30" height="30" as="geometry" />
        </mxCell>
        <mxCell id="M2rc0H9iuzc80pS0VGJU-23" style="rounded=0;orthogonalLoop=1;jettySize=auto;html=1;entryX=0;entryY=0.5;entryDx=0;entryDy=0;endArrow=none;endFill=0;" edge="1" parent="1" source="M2rc0H9iuzc80pS0VGJU-11" target="M2rc0H9iuzc80pS0VGJU-14">
          <mxGeometry relative="1" as="geometry" />
        </mxCell>
        <mxCell id="M2rc0H9iuzc80pS0VGJU-11" value="" style="rounded=0;whiteSpace=wrap;html=1;" vertex="1" parent="1">
          <mxGeometry x="780" y="254" width="30" height="30" as="geometry" />
        </mxCell>
        <mxCell id="M2rc0H9iuzc80pS0VGJU-24" style="rounded=0;orthogonalLoop=1;jettySize=auto;html=1;entryX=0;entryY=0.5;entryDx=0;entryDy=0;endArrow=none;endFill=0;" edge="1" parent="1" source="M2rc0H9iuzc80pS0VGJU-12" target="M2rc0H9iuzc80pS0VGJU-15">
          <mxGeometry relative="1" as="geometry" />
        </mxCell>
        <mxCell id="M2rc0H9iuzc80pS0VGJU-12" value="" style="rounded=0;whiteSpace=wrap;html=1;" vertex="1" parent="1">
          <mxGeometry x="780" y="410" width="30" height="30" as="geometry" />
        </mxCell>
        <mxCell id="M2rc0H9iuzc80pS0VGJU-13" value="" style="rounded=0;whiteSpace=wrap;html=1;" vertex="1" parent="1">
          <mxGeometry x="910" y="130" width="30" height="30" as="geometry" />
        </mxCell>
        <mxCell id="M2rc0H9iuzc80pS0VGJU-14" value="" style="rounded=0;whiteSpace=wrap;html=1;" vertex="1" parent="1">
          <mxGeometry x="900" y="254" width="30" height="30" as="geometry" />
        </mxCell>
        <mxCell id="M2rc0H9iuzc80pS0VGJU-15" value="" style="rounded=0;whiteSpace=wrap;html=1;" vertex="1" parent="1">
          <mxGeometry x="915" y="410" width="30" height="30" as="geometry" />
        </mxCell>
        <mxCell id="M2rc0H9iuzc80pS0VGJU-17" style="rounded=1;orthogonalLoop=1;jettySize=auto;html=1;entryX=0;entryY=0.5;entryDx=0;entryDy=0;endArrow=none;endFill=0;exitX=1;exitY=0.5;exitDx=0;exitDy=0;" edge="1" parent="1" source="M2rc0H9iuzc80pS0VGJU-5" target="M2rc0H9iuzc80pS0VGJU-6">
          <mxGeometry relative="1" as="geometry">
            <mxPoint x="690" y="434.5" as="targetPoint" />
            <mxPoint x="563" y="434.5" as="sourcePoint" />
          </mxGeometry>
        </mxCell>
        <mxCell id="M2rc0H9iuzc80pS0VGJU-18" style="rounded=1;orthogonalLoop=1;jettySize=auto;html=1;entryX=0;entryY=0.5;entryDx=0;entryDy=0;endArrow=none;endFill=0;" edge="1" parent="1" source="M2rc0H9iuzc80pS0VGJU-3" target="M2rc0H9iuzc80pS0VGJU-4">
          <mxGeometry relative="1" as="geometry">
            <mxPoint x="677" y="154.38" as="targetPoint" />
            <mxPoint x="550" y="154.38" as="sourcePoint" />
          </mxGeometry>
        </mxCell>
        <mxCell id="eef224ag9TMszilRh1iL-35" style="edgeStyle=orthogonalEdgeStyle;rounded=0;orthogonalLoop=1;jettySize=auto;html=1;entryX=0;entryY=0.5;entryDx=0;entryDy=0;startArrow=none;startFill=0;endArrow=none;endFill=0;" edge="1" parent="1" source="eef224ag9TMszilRh1iL-29" target="eef224ag9TMszilRh1iL-31">
          <mxGeometry relative="1" as="geometry" />
        </mxCell>
        <mxCell id="eef224ag9TMszilRh1iL-29" value="" style="rounded=0;whiteSpace=wrap;html=1;" vertex="1" parent="1">
          <mxGeometry x="190" y="365" width="30" height="30" as="geometry" />
        </mxCell>
        <mxCell id="M2rc0H9iuzc80pS0VGJU-25" value="&lt;table&gt;&lt;tbody&gt;&lt;tr&gt;&lt;td data-start=&quot;2163&quot; data-end=&quot;2188&quot; data-col-size=&quot;sm&quot;&gt;&lt;/td&gt;&lt;/tr&gt;&lt;/tbody&gt;&lt;/table&gt;&lt;table&gt;&lt;tbody&gt;&lt;tr&gt;&lt;td data-start=&quot;2188&quot; data-end=&quot;2214&quot; data-col-size=&quot;sm&quot;&gt;1..*&lt;/td&gt;&lt;/tr&gt;&lt;/tbody&gt;&lt;/table&gt;" style="text;whiteSpace=wrap;html=1;" vertex="1" parent="1">
          <mxGeometry x="810" y="240" width="60" height="50" as="geometry" />
        </mxCell>
        <mxCell id="M2rc0H9iuzc80pS0VGJU-26" value="&lt;table&gt;&lt;tbody&gt;&lt;tr&gt;&lt;td data-start=&quot;2163&quot; data-end=&quot;2188&quot; data-col-size=&quot;sm&quot;&gt;&lt;/td&gt;&lt;/tr&gt;&lt;/tbody&gt;&lt;/table&gt;&lt;table&gt;&lt;tbody&gt;&lt;tr&gt;&lt;td data-start=&quot;2188&quot; data-end=&quot;2214&quot; data-col-size=&quot;sm&quot;&gt;1..*&lt;/td&gt;&lt;/tr&gt;&lt;/tbody&gt;&lt;/table&gt;" style="text;whiteSpace=wrap;html=1;" vertex="1" parent="1">
          <mxGeometry x="870" y="235" width="30" height="40" as="geometry" />
        </mxCell>
        <mxCell id="M2rc0H9iuzc80pS0VGJU-27" value="&lt;table&gt;&lt;tbody&gt;&lt;tr&gt;&lt;td data-start=&quot;2163&quot; data-end=&quot;2188&quot; data-col-size=&quot;sm&quot;&gt;&lt;/td&gt;&lt;/tr&gt;&lt;/tbody&gt;&lt;/table&gt;&lt;table&gt;&lt;tbody&gt;&lt;tr&gt;&lt;td data-start=&quot;2188&quot; data-end=&quot;2214&quot; data-col-size=&quot;sm&quot;&gt;1..*&lt;/td&gt;&lt;/tr&gt;&lt;/tbody&gt;&lt;/table&gt;" style="text;whiteSpace=wrap;html=1;" vertex="1" parent="1">
          <mxGeometry x="810" y="390" width="60" height="50" as="geometry" />
        </mxCell>
        <mxCell id="M2rc0H9iuzc80pS0VGJU-28" value="&lt;table&gt;&lt;tbody&gt;&lt;tr&gt;&lt;td data-start=&quot;2163&quot; data-end=&quot;2188&quot; data-col-size=&quot;sm&quot;&gt;&lt;/td&gt;&lt;/tr&gt;&lt;/tbody&gt;&lt;/table&gt;&lt;table&gt;&lt;tbody&gt;&lt;tr&gt;&lt;td data-start=&quot;2188&quot; data-end=&quot;2214&quot; data-col-size=&quot;sm&quot;&gt;1..*&lt;/td&gt;&lt;/tr&gt;&lt;/tbody&gt;&lt;/table&gt;" style="text;whiteSpace=wrap;html=1;" vertex="1" parent="1">
          <mxGeometry x="880" y="390" width="60" height="50" as="geometry" />
        </mxCell>
        <mxCell id="eef224ag9TMszilRh1iL-30" value="&lt;div&gt;&amp;lt;&amp;lt;part&amp;gt;&amp;gt;&lt;/div&gt;&lt;div&gt;&lt;span style=&quot;background-color: transparent; color: light-dark(rgb(0, 0, 0), rgb(255, 255, 255));&quot;&gt;Tipo:&amp;nbsp;&lt;/span&gt;&lt;/div&gt;&lt;div&gt;&lt;span style=&quot;background-color: transparent; color: light-dark(rgb(0, 0, 0), rgb(255, 255, 255));&quot;&gt;TipoSolicitud&lt;/span&gt;&lt;/div&gt;" style="html=1;whiteSpace=wrap;" vertex="1" parent="1">
          <mxGeometry x="375" y="350" width="110" height="60" as="geometry" />
        </mxCell>
        <mxCell id="eef224ag9TMszilRh1iL-31" value="" style="rounded=0;whiteSpace=wrap;html=1;" vertex="1" parent="1">
          <mxGeometry x="350" y="365" width="30" height="30" as="geometry" />
        </mxCell>
        <mxCell id="M2rc0H9iuzc80pS0VGJU-29" value="&lt;table&gt;&lt;tbody&gt;&lt;tr&gt;&lt;td data-start=&quot;2163&quot; data-end=&quot;2188&quot; data-col-size=&quot;sm&quot;&gt;&lt;/td&gt;&lt;/tr&gt;&lt;/tbody&gt;&lt;/table&gt;&lt;table&gt;&lt;tbody&gt;&lt;tr&gt;&lt;td data-start=&quot;2188&quot; data-end=&quot;2214&quot; data-col-size=&quot;sm&quot;&gt;1..*&lt;/td&gt;&lt;/tr&gt;&lt;/tbody&gt;&lt;/table&gt;" style="text;whiteSpace=wrap;html=1;" vertex="1" parent="1">
          <mxGeometry x="810" y="110" width="60" height="50" as="geometry" />
        </mxCell>
        <mxCell id="M2rc0H9iuzc80pS0VGJU-30" value="&lt;table&gt;&lt;tbody&gt;&lt;tr&gt;&lt;td data-start=&quot;2163&quot; data-end=&quot;2188&quot; data-col-size=&quot;sm&quot;&gt;&lt;/td&gt;&lt;/tr&gt;&lt;/tbody&gt;&lt;/table&gt;&lt;table&gt;&lt;tbody&gt;&lt;tr&gt;&lt;td data-start=&quot;2188&quot; data-end=&quot;2214&quot; data-col-size=&quot;sm&quot;&gt;1..*&lt;/td&gt;&lt;/tr&gt;&lt;/tbody&gt;&lt;/table&gt;" style="text;whiteSpace=wrap;html=1;" vertex="1" parent="1">
          <mxGeometry x="890" y="100" width="60" height="50" as="geometry" />
        </mxCell>
        <mxCell id="M2rc0H9iuzc80pS0VGJU-31" value="&lt;table&gt;&lt;tbody&gt;&lt;tr&gt;&lt;td data-start=&quot;2163&quot; data-end=&quot;2188&quot; data-col-size=&quot;sm&quot;&gt;&lt;/td&gt;&lt;/tr&gt;&lt;/tbody&gt;&lt;/table&gt;&lt;table&gt;&lt;tbody&gt;&lt;tr&gt;&lt;td data-start=&quot;2188&quot; data-end=&quot;2214&quot; data-col-size=&quot;sm&quot;&gt;1..*&lt;/td&gt;&lt;/tr&gt;&lt;/tbody&gt;&lt;/table&gt;" style="text;whiteSpace=wrap;html=1;" vertex="1" parent="1">
          <mxGeometry x="540" y="110" width="60" height="50" as="geometry" />
        </mxCell>
        <mxCell id="M2rc0H9iuzc80pS0VGJU-32" value="&lt;table&gt;&lt;tbody&gt;&lt;tr&gt;&lt;td data-start=&quot;2163&quot; data-end=&quot;2188&quot; data-col-size=&quot;sm&quot;&gt;&lt;/td&gt;&lt;/tr&gt;&lt;/tbody&gt;&lt;/table&gt;&lt;table&gt;&lt;tbody&gt;&lt;tr&gt;&lt;td data-start=&quot;2188&quot; data-end=&quot;2214&quot; data-col-size=&quot;sm&quot;&gt;1..*&lt;/td&gt;&lt;/tr&gt;&lt;/tbody&gt;&lt;/table&gt;" style="text;whiteSpace=wrap;html=1;" vertex="1" parent="1">
          <mxGeometry x="620" y="110" width="60" height="50" as="geometry" />
        </mxCell>
        <mxCell id="M2rc0H9iuzc80pS0VGJU-34" value="&lt;table&gt;&lt;tbody&gt;&lt;tr&gt;&lt;td data-start=&quot;2163&quot; data-end=&quot;2188&quot; data-col-size=&quot;sm&quot;&gt;&lt;/td&gt;&lt;/tr&gt;&lt;/tbody&gt;&lt;/table&gt;&lt;table&gt;&lt;tbody&gt;&lt;tr&gt;&lt;td data-start=&quot;2188&quot; data-end=&quot;2214&quot; data-col-size=&quot;sm&quot;&gt;1..*&lt;/td&gt;&lt;/tr&gt;&lt;/tbody&gt;&lt;/table&gt;" style="text;whiteSpace=wrap;html=1;" vertex="1" parent="1">
          <mxGeometry x="540" y="230" width="60" height="50" as="geometry" />
        </mxCell>
        <mxCell id="M2rc0H9iuzc80pS0VGJU-35" value="&lt;table&gt;&lt;tbody&gt;&lt;tr&gt;&lt;td data-start=&quot;2163&quot; data-end=&quot;2188&quot; data-col-size=&quot;sm&quot;&gt;&lt;/td&gt;&lt;/tr&gt;&lt;/tbody&gt;&lt;/table&gt;&lt;table&gt;&lt;tbody&gt;&lt;tr&gt;&lt;td data-start=&quot;2188&quot; data-end=&quot;2214&quot; data-col-size=&quot;sm&quot;&gt;1..*&lt;/td&gt;&lt;/tr&gt;&lt;/tbody&gt;&lt;/table&gt;" style="text;whiteSpace=wrap;html=1;" vertex="1" parent="1">
          <mxGeometry x="620" y="234" width="60" height="50" as="geometry" />
        </mxCell>
        <mxCell id="M2rc0H9iuzc80pS0VGJU-36" value="&lt;table&gt;&lt;tbody&gt;&lt;tr&gt;&lt;td data-start=&quot;2163&quot; data-end=&quot;2188&quot; data-col-size=&quot;sm&quot;&gt;&lt;/td&gt;&lt;/tr&gt;&lt;/tbody&gt;&lt;/table&gt;&lt;table&gt;&lt;tbody&gt;&lt;tr&gt;&lt;td data-start=&quot;2188&quot; data-end=&quot;2214&quot; data-col-size=&quot;sm&quot;&gt;1..*&lt;/td&gt;&lt;/tr&gt;&lt;/tbody&gt;&lt;/table&gt;" style="text;whiteSpace=wrap;html=1;" vertex="1" parent="1">
          <mxGeometry x="550" y="395" width="60" height="50" as="geometry" />
        </mxCell>
        <mxCell id="M2rc0H9iuzc80pS0VGJU-37" value="&lt;table&gt;&lt;tbody&gt;&lt;tr&gt;&lt;td data-start=&quot;2163&quot; data-end=&quot;2188&quot; data-col-size=&quot;sm&quot;&gt;&lt;/td&gt;&lt;/tr&gt;&lt;/tbody&gt;&lt;/table&gt;&lt;table&gt;&lt;tbody&gt;&lt;tr&gt;&lt;td data-start=&quot;2188&quot; data-end=&quot;2214&quot; data-col-size=&quot;sm&quot;&gt;1..*&lt;/td&gt;&lt;/tr&gt;&lt;/tbody&gt;&lt;/table&gt;" style="text;whiteSpace=wrap;html=1;" vertex="1" parent="1">
          <mxGeometry x="630" y="390" width="60" height="50" as="geometry" />
        </mxCell>
        <mxCell id="eef224ag9TMszilRh1iL-32" value="&lt;div&gt;&amp;lt;&amp;lt;note&amp;gt;&amp;gt;&lt;/div&gt;&lt;div&gt;AgendarCita&lt;br&gt;CancelarEvento&lt;/div&gt;&lt;div&gt;CambiarDocumento&lt;/div&gt;" style="html=1;whiteSpace=wrap;" vertex="1" parent="1">
          <mxGeometry x="370" y="540" width="110" height="70" as="geometry" />
        </mxCell>
        <mxCell id="eef224ag9TMszilRh1iL-36" style="edgeStyle=orthogonalEdgeStyle;rounded=0;orthogonalLoop=1;jettySize=auto;html=1;entryX=0.5;entryY=0;entryDx=0;entryDy=0;endArrow=none;endFill=0;" edge="1" parent="1" source="eef224ag9TMszilRh1iL-33" target="eef224ag9TMszilRh1iL-34">
          <mxGeometry relative="1" as="geometry" />
        </mxCell>
        <mxCell id="eef224ag9TMszilRh1iL-33" value="" style="rounded=0;whiteSpace=wrap;html=1;" vertex="1" parent="1">
          <mxGeometry x="410" y="405" width="30" height="30" as="geometry" />
        </mxCell>
        <mxCell id="eef224ag9TMszilRh1iL-34" value="" style="rounded=0;whiteSpace=wrap;html=1;" vertex="1" parent="1">
          <mxGeometry x="410" y="510" width="30" height="30" as="geometry" />
        </mxCell>
        <mxCell id="1Xi1dz2Q9UGMM_O3Wy2a-1" value="&lt;table&gt;&lt;tbody&gt;&lt;tr&gt;&lt;td data-start=&quot;2163&quot; data-end=&quot;2188&quot; data-col-size=&quot;sm&quot;&gt;&lt;/td&gt;&lt;/tr&gt;&lt;/tbody&gt;&lt;/table&gt;1" style="text;whiteSpace=wrap;html=1;" vertex="1" parent="1">
          <mxGeometry x="300" y="170" width="60" height="50" as="geometry" />
        </mxCell>
        <mxCell id="1Xi1dz2Q9UGMM_O3Wy2a-2" value="&lt;table&gt;&lt;tbody&gt;&lt;tr&gt;&lt;td data-start=&quot;2163&quot; data-end=&quot;2188&quot; data-col-size=&quot;sm&quot;&gt;&lt;/td&gt;&lt;/tr&gt;&lt;/tbody&gt;&lt;/table&gt;&lt;table&gt;&lt;tbody&gt;&lt;tr&gt;&lt;td data-start=&quot;2188&quot; data-end=&quot;2214&quot; data-col-size=&quot;sm&quot;&gt;1&lt;span style=&quot;color: rgba(0, 0, 0, 0); font-family: monospace; font-size: 0px; text-wrap-mode: nowrap;&quot;&gt;%3CmxGraphModel%3E%3Croot%3E%3CmxCell%20id%3D%220%22%2F%3E%3CmxCell%20id%3D%221%22%20parent%3D%220%22%2F%3E%3CmxCell%20id%3D%222%22%20value%3D%22%26lt%3Btable%26gt%3B%26lt%3Btbody%26gt%3B%26lt%3Btr%26gt%3B%26lt%3Btd%20data-start%3D%26quot%3B2163%26quot%3B%20data-end%3D%26quot%3B2188%26quot%3B%20data-col-size%3D%26quot%3Bsm%26quot%3B%26gt%3B%26lt%3B%2Ftd%26gt%3B%26lt%3B%2Ftr%26gt%3B%26lt%3B%2Ftbody%26gt%3B%26lt%3B%2Ftable%26gt%3B%26lt%3Btable%26gt%3B%26lt%3Btbody%26gt%3B%26lt%3Btr%26gt%3B%26lt%3Btd%20data-start%3D%26quot%3B2188%26quot%3B%20data-end%3D%26quot%3B2214%26quot%3B%20data-col-size%3D%26quot%3Bsm%26quot%3B%26gt%3B1..*%26lt%3B%2Ftd%26gt%3B%26lt%3B%2Ftr%26gt%3B%26lt%3B%2Ftbody%26gt%3B%26lt%3B%2Ftable%26gt%3B%22%20style%3D%22text%3BwhiteSpace%3Dwrap%3Bhtml%3D1%3B%22%20vertex%3D%221%22%20parent%3D%221%22%3E%3CmxGeometry%20x%3D%22540%22%20y%3D%22110%22%20width%3D%2260%22%20height%3D%2250%22%20as%3D%22geometry%22%2F%3E%3C%2FmxCell%3E%3C%2Froot%3E%3C%2FmxGraphModel%3E&lt;/span&gt;&lt;span style=&quot;color: rgba(0, 0, 0, 0); font-family: monospace; font-size: 0px; text-wrap-mode: nowrap;&quot;&gt;%3CmxGraphModel%3E%3Croot%3E%3CmxCell%20id%3D%220%22%2F%3E%3CmxCell%20id%3D%221%22%20parent%3D%220%22%2F%3E%3CmxCell%20id%3D%222%22%20value%3D%22%26lt%3Btable%26gt%3B%26lt%3Btbody%26gt%3B%26lt%3Btr%26gt%3B%26lt%3Btd%20data-start%3D%26quot%3B2163%26quot%3B%20data-end%3D%26quot%3B2188%26quot%3B%20data-col-size%3D%26quot%3Bsm%26quot%3B%26gt%3B%26lt%3B%2Ftd%26gt%3B%26lt%3B%2Ftr%26gt%3B%26lt%3B%2Ftbody%26gt%3B%26lt%3B%2Ftable%26gt%3B%26lt%3Btable%26gt%3B%26lt%3Btbody%26gt%3B%26lt%3Btr%26gt%3B%26lt%3Btd%20data-start%3D%26quot%3B2188%26quot%3B%20data-end%3D%26quot%3B2214%26quot%3B%20data-col-size%3D%26quot%3Bsm%26quot%3B%26gt%3B1..*%26lt%3B%2Ftd%26gt%3B%26lt%3B%2Ftr%26gt%3B%26lt%3B%2Ftbody%26gt%3B%26lt%3B%2Ftable%26gt%3B%22%20style%3D%22text%3BwhiteSpace%3Dwrap%3Bhtml%3D1%3B%22%20vertex%3D%221%22%20parent%3D%221%22%3E%3CmxGeometry%20x%3D%22540%22%20y%3D%22110%22%20width%3D%2260%22%20height%3D%2250%22%20as%3D%22geometry%22%2F%3E%3C%2FmxCell%3E%3C%2Froot%3E%3C%2FmxGraphModel%3E&lt;/span&gt;&lt;/td&gt;&lt;/tr&gt;&lt;/tbody&gt;&lt;/table&gt;" style="text;whiteSpace=wrap;html=1;" vertex="1" parent="1">
          <mxGeometry x="220" y="162" width="60" height="50" as="geometry" />
        </mxCell>
        <mxCell id="1Xi1dz2Q9UGMM_O3Wy2a-4" value="&lt;table&gt;&lt;tbody&gt;&lt;tr&gt;&lt;td data-start=&quot;2163&quot; data-end=&quot;2188&quot; data-col-size=&quot;sm&quot;&gt;&lt;/td&gt;&lt;/tr&gt;&lt;/tbody&gt;&lt;/table&gt;1" style="text;whiteSpace=wrap;html=1;" vertex="1" parent="1">
          <mxGeometry x="320" y="345" width="60" height="50" as="geometry" />
        </mxCell>
        <mxCell id="1Xi1dz2Q9UGMM_O3Wy2a-6" value="&lt;table&gt;&lt;tbody&gt;&lt;tr&gt;&lt;td data-start=&quot;2163&quot; data-end=&quot;2188&quot; data-col-size=&quot;sm&quot;&gt;&lt;/td&gt;&lt;/tr&gt;&lt;/tbody&gt;&lt;/table&gt;&lt;table&gt;&lt;tbody&gt;&lt;tr&gt;&lt;td data-start=&quot;2188&quot; data-end=&quot;2214&quot; data-col-size=&quot;sm&quot;&gt;1&lt;span style=&quot;color: rgba(0, 0, 0, 0); font-family: monospace; font-size: 0px; text-wrap-mode: nowrap;&quot;&gt;%3CmxGraphModel%3E%3Croot%3E%3CmxCell%20id%3D%220%22%2F%3E%3CmxCell%20id%3D%221%22%20parent%3D%220%22%2F%3E%3CmxCell%20id%3D%222%22%20value%3D%22%26lt%3Btable%26gt%3B%26lt%3Btbody%26gt%3B%26lt%3Btr%26gt%3B%26lt%3Btd%20data-start%3D%26quot%3B2163%26quot%3B%20data-end%3D%26quot%3B2188%26quot%3B%20data-col-size%3D%26quot%3Bsm%26quot%3B%26gt%3B%26lt%3B%2Ftd%26gt%3B%26lt%3B%2Ftr%26gt%3B%26lt%3B%2Ftbody%26gt%3B%26lt%3B%2Ftable%26gt%3B%26lt%3Btable%26gt%3B%26lt%3Btbody%26gt%3B%26lt%3Btr%26gt%3B%26lt%3Btd%20data-start%3D%26quot%3B2188%26quot%3B%20data-end%3D%26quot%3B2214%26quot%3B%20data-col-size%3D%26quot%3Bsm%26quot%3B%26gt%3B1..*%26lt%3B%2Ftd%26gt%3B%26lt%3B%2Ftr%26gt%3B%26lt%3B%2Ftbody%26gt%3B%26lt%3B%2Ftable%26gt%3B%22%20style%3D%22text%3BwhiteSpace%3Dwrap%3Bhtml%3D1%3B%22%20vertex%3D%221%22%20parent%3D%221%22%3E%3CmxGeometry%20x%3D%22540%22%20y%3D%22110%22%20width%3D%2260%22%20height%3D%2250%22%20as%3D%22geometry%22%2F%3E%3C%2FmxCell%3E%3C%2Froot%3E%3C%2FmxGraphModel%3E&lt;/span&gt;&lt;span style=&quot;color: rgba(0, 0, 0, 0); font-family: monospace; font-size: 0px; text-wrap-mode: nowrap;&quot;&gt;%3CmxGraphModel%3E%3Croot%3E%3CmxCell%20id%3D%220%22%2F%3E%3CmxCell%20id%3D%221%22%20parent%3D%220%22%2F%3E%3CmxCell%20id%3D%222%22%20value%3D%22%26lt%3Btable%26gt%3B%26lt%3Btbody%26gt%3B%26lt%3Btr%26gt%3B%26lt%3Btd%20data-start%3D%26quot%3B2163%26quot%3B%20data-end%3D%26quot%3B2188%26quot%3B%20data-col-size%3D%26quot%3Bsm%26quot%3B%26gt%3B%26lt%3B%2Ftd%26gt%3B%26lt%3B%2Ftr%26gt%3B%26lt%3B%2Ftbody%26gt%3B%26lt%3B%2Ftable%26gt%3B%26lt%3Btable%26gt%3B%26lt%3Btbody%26gt%3B%26lt%3Btr%26gt%3B%26lt%3Btd%20data-start%3D%26quot%3B2188%26quot%3B%20data-end%3D%26quot%3B2214%26quot%3B%20data-col-size%3D%26quot%3Bsm%26quot%3B%26gt%3B1..*%26lt%3B%2Ftd%26gt%3B%26lt%3B%2Ftr%26gt%3B%26lt%3B%2Ftbody%26gt%3B%26lt%3B%2Ftable%26gt%3B%22%20style%3D%22text%3BwhiteSpace%3Dwrap%3Bhtml%3D1%3B%22%20vertex%3D%221%22%20parent%3D%221%22%3E%3CmxGeometry%20x%3D%22540%22%20y%3D%22110%22%20width%3D%2260%22%20height%3D%2250%22%20as%3D%22geometry%22%2F%3E%3C%2FmxCell%3E%3C%2Froot%3E%3C%2FmxGraphModel%3E&lt;/span&gt;&lt;/td&gt;&lt;/tr&gt;&lt;/tbody&gt;&lt;/table&gt;" style="text;whiteSpace=wrap;html=1;" vertex="1" parent="1">
          <mxGeometry x="140" y="300" width="60" height="50" as="geometry" />
        </mxCell>
        <mxCell id="1Xi1dz2Q9UGMM_O3Wy2a-7" value="&lt;table&gt;&lt;tbody&gt;&lt;tr&gt;&lt;td data-start=&quot;2163&quot; data-end=&quot;2188&quot; data-col-size=&quot;sm&quot;&gt;&lt;/td&gt;&lt;/tr&gt;&lt;/tbody&gt;&lt;/table&gt;&lt;table&gt;&lt;tbody&gt;&lt;tr&gt;&lt;td data-start=&quot;2188&quot; data-end=&quot;2214&quot; data-col-size=&quot;sm&quot;&gt;1&lt;span style=&quot;color: rgba(0, 0, 0, 0); font-family: monospace; font-size: 0px; text-wrap-mode: nowrap;&quot;&gt;%3CmxGraphModel%3E%3Croot%3E%3CmxCell%20id%3D%220%22%2F%3E%3CmxCell%20id%3D%221%22%20parent%3D%220%22%2F%3E%3CmxCell%20id%3D%222%22%20value%3D%22%26lt%3Btable%26gt%3B%26lt%3Btbody%26gt%3B%26lt%3Btr%26gt%3B%26lt%3Btd%20data-start%3D%26quot%3B2163%26quot%3B%20data-end%3D%26quot%3B2188%26quot%3B%20data-col-size%3D%26quot%3Bsm%26quot%3B%26gt%3B%26lt%3B%2Ftd%26gt%3B%26lt%3B%2Ftr%26gt%3B%26lt%3B%2Ftbody%26gt%3B%26lt%3B%2Ftable%26gt%3B%26lt%3Btable%26gt%3B%26lt%3Btbody%26gt%3B%26lt%3Btr%26gt%3B%26lt%3Btd%20data-start%3D%26quot%3B2188%26quot%3B%20data-end%3D%26quot%3B2214%26quot%3B%20data-col-size%3D%26quot%3Bsm%26quot%3B%26gt%3B1..*%26lt%3B%2Ftd%26gt%3B%26lt%3B%2Ftr%26gt%3B%26lt%3B%2Ftbody%26gt%3B%26lt%3B%2Ftable%26gt%3B%22%20style%3D%22text%3BwhiteSpace%3Dwrap%3Bhtml%3D1%3B%22%20vertex%3D%221%22%20parent%3D%221%22%3E%3CmxGeometry%20x%3D%22540%22%20y%3D%22110%22%20width%3D%2260%22%20height%3D%2250%22%20as%3D%22geometry%22%2F%3E%3C%2FmxCell%3E%3C%2Froot%3E%3C%2FmxGraphModel%3E&lt;/span&gt;&lt;span style=&quot;color: rgba(0, 0, 0, 0); font-family: monospace; font-size: 0px; text-wrap-mode: nowrap;&quot;&gt;%3CmxGraphModel%3E%3Croot%3E%3CmxCell%20id%3D%220%22%2F%3E%3CmxCell%20id%3D%221%22%20parent%3D%220%22%2F%3E%3CmxCell%20id%3D%222%22%20value%3D%22%26lt%3Btable%26gt%3B%26lt%3Btbody%26gt%3B%26lt%3Btr%26gt%3B%26lt%3Btd%20data-start%3D%26quot%3B2163%26quot%3B%20data-end%3D%26quot%3B2188%26quot%3B%20data-col-size%3D%26quot%3Bsm%26quot%3B%26gt%3B%26lt%3B%2Ftd%26gt%3B%26lt%3B%2Ftr%26gt%3B%26lt%3B%2Ftbody%26gt%3B%26lt%3B%2Ftable%26gt%3B%26lt%3Btable%26gt%3B%26lt%3Btbody%26gt%3B%26lt%3Btr%26gt%3B%26lt%3Btd%20data-start%3D%26quot%3B2188%26quot%3B%20data-end%3D%26quot%3B2214%26quot%3B%20data-col-size%3D%26quot%3Bsm%26quot%3B%26gt%3B1..*%26lt%3B%2Ftd%26gt%3B%26lt%3B%2Ftr%26gt%3B%26lt%3B%2Ftbody%26gt%3B%26lt%3B%2Ftable%26gt%3B%22%20style%3D%22text%3BwhiteSpace%3Dwrap%3Bhtml%3D1%3B%22%20vertex%3D%221%22%20parent%3D%221%22%3E%3CmxGeometry%20x%3D%22540%22%20y%3D%22110%22%20width%3D%2260%22%20height%3D%2250%22%20as%3D%22geometry%22%2F%3E%3C%2FmxCell%3E%3C%2Froot%3E%3C%2FmxGraphModel%3E&lt;/span&gt;&lt;/td&gt;&lt;/tr&gt;&lt;/tbody&gt;&lt;/table&gt;" style="text;whiteSpace=wrap;html=1;" vertex="1" parent="1">
          <mxGeometry x="140" y="225" width="60" height="50" as="geometry" />
        </mxCell>
        <mxCell id="1Xi1dz2Q9UGMM_O3Wy2a-8" value="&lt;table&gt;&lt;tbody&gt;&lt;tr&gt;&lt;td data-start=&quot;2163&quot; data-end=&quot;2188&quot; data-col-size=&quot;sm&quot;&gt;&lt;/td&gt;&lt;/tr&gt;&lt;/tbody&gt;&lt;/table&gt;&lt;table&gt;&lt;tbody&gt;&lt;tr&gt;&lt;td data-start=&quot;2188&quot; data-end=&quot;2214&quot; data-col-size=&quot;sm&quot;&gt;1&lt;span style=&quot;color: rgba(0, 0, 0, 0); font-family: monospace; font-size: 0px; text-wrap-mode: nowrap;&quot;&gt;%3CmxGraphModel%3E%3Croot%3E%3CmxCell%20id%3D%220%22%2F%3E%3CmxCell%20id%3D%221%22%20parent%3D%220%22%2F%3E%3CmxCell%20id%3D%222%22%20value%3D%22%26lt%3Btable%26gt%3B%26lt%3Btbody%26gt%3B%26lt%3Btr%26gt%3B%26lt%3Btd%20data-start%3D%26quot%3B2163%26quot%3B%20data-end%3D%26quot%3B2188%26quot%3B%20data-col-size%3D%26quot%3Bsm%26quot%3B%26gt%3B%26lt%3B%2Ftd%26gt%3B%26lt%3B%2Ftr%26gt%3B%26lt%3B%2Ftbody%26gt%3B%26lt%3B%2Ftable%26gt%3B%26lt%3Btable%26gt%3B%26lt%3Btbody%26gt%3B%26lt%3Btr%26gt%3B%26lt%3Btd%20data-start%3D%26quot%3B2188%26quot%3B%20data-end%3D%26quot%3B2214%26quot%3B%20data-col-size%3D%26quot%3Bsm%26quot%3B%26gt%3B1..*%26lt%3B%2Ftd%26gt%3B%26lt%3B%2Ftr%26gt%3B%26lt%3B%2Ftbody%26gt%3B%26lt%3B%2Ftable%26gt%3B%22%20style%3D%22text%3BwhiteSpace%3Dwrap%3Bhtml%3D1%3B%22%20vertex%3D%221%22%20parent%3D%221%22%3E%3CmxGeometry%20x%3D%22540%22%20y%3D%22110%22%20width%3D%2260%22%20height%3D%2250%22%20as%3D%22geometry%22%2F%3E%3C%2FmxCell%3E%3C%2Froot%3E%3C%2FmxGraphModel%3E&lt;/span&gt;&lt;span style=&quot;color: rgba(0, 0, 0, 0); font-family: monospace; font-size: 0px; text-wrap-mode: nowrap;&quot;&gt;%3CmxGraphModel%3E%3Croot%3E%3CmxCell%20id%3D%220%22%2F%3E%3CmxCell%20id%3D%221%22%20parent%3D%220%22%2F%3E%3CmxCell%20id%3D%222%22%20value%3D%22%26lt%3Btable%26gt%3B%26lt%3Btbody%26gt%3B%26lt%3Btr%26gt%3B%26lt%3Btd%20data-start%3D%26quot%3B2163%26quot%3B%20data-end%3D%26quot%3B2188%26quot%3B%20data-col-size%3D%26quot%3Bsm%26quot%3B%26gt%3B%26lt%3B%2Ftd%26gt%3B%26lt%3B%2Ftr%26gt%3B%26lt%3B%2Ftbody%26gt%3B%26lt%3B%2Ftable%26gt%3B%26lt%3Btable%26gt%3B%26lt%3Btbody%26gt%3B%26lt%3Btr%26gt%3B%26lt%3Btd%20data-start%3D%26quot%3B2188%26quot%3B%20data-end%3D%26quot%3B2214%26quot%3B%20data-col-size%3D%26quot%3Bsm%26quot%3B%26gt%3B1..*%26lt%3B%2Ftd%26gt%3B%26lt%3B%2Ftr%26gt%3B%26lt%3B%2Ftbody%26gt%3B%26lt%3B%2Ftable%26gt%3B%22%20style%3D%22text%3BwhiteSpace%3Dwrap%3Bhtml%3D1%3B%22%20vertex%3D%221%22%20parent%3D%221%22%3E%3CmxGeometry%20x%3D%22540%22%20y%3D%22110%22%20width%3D%2260%22%20height%3D%2250%22%20as%3D%22geometry%22%2F%3E%3C%2FmxCell%3E%3C%2Froot%3E%3C%2FmxGraphModel%3E&lt;/span&gt;&lt;/td&gt;&lt;/tr&gt;&lt;/tbody&gt;&lt;/table&gt;" style="text;whiteSpace=wrap;html=1;" vertex="1" parent="1">
          <mxGeometry x="220" y="345" width="60" height="50" as="geometry" />
        </mxCell>
        <mxCell id="1Xi1dz2Q9UGMM_O3Wy2a-9" value="&lt;table&gt;&lt;tbody&gt;&lt;tr&gt;&lt;td data-start=&quot;2163&quot; data-end=&quot;2188&quot; data-col-size=&quot;sm&quot;&gt;&lt;/td&gt;&lt;/tr&gt;&lt;/tbody&gt;&lt;/table&gt;&lt;table&gt;&lt;tbody&gt;&lt;tr&gt;&lt;td data-start=&quot;2188&quot; data-end=&quot;2214&quot; data-col-size=&quot;sm&quot;&gt;1&lt;span style=&quot;color: rgba(0, 0, 0, 0); font-family: monospace; font-size: 0px; text-wrap-mode: nowrap;&quot;&gt;%3CmxGraphModel%3E%3Croot%3E%3CmxCell%20id%3D%220%22%2F%3E%3CmxCell%20id%3D%221%22%20parent%3D%220%22%2F%3E%3CmxCell%20id%3D%222%22%20value%3D%22%26lt%3Btable%26gt%3B%26lt%3Btbody%26gt%3B%26lt%3Btr%26gt%3B%26lt%3Btd%20data-start%3D%26quot%3B2163%26quot%3B%20data-end%3D%26quot%3B2188%26quot%3B%20data-col-size%3D%26quot%3Bsm%26quot%3B%26gt%3B%26lt%3B%2Ftd%26gt%3B%26lt%3B%2Ftr%26gt%3B%26lt%3B%2Ftbody%26gt%3B%26lt%3B%2Ftable%26gt%3B%26lt%3Btable%26gt%3B%26lt%3Btbody%26gt%3B%26lt%3Btr%26gt%3B%26lt%3Btd%20data-start%3D%26quot%3B2188%26quot%3B%20data-end%3D%26quot%3B2214%26quot%3B%20data-col-size%3D%26quot%3Bsm%26quot%3B%26gt%3B1..*%26lt%3B%2Ftd%26gt%3B%26lt%3B%2Ftr%26gt%3B%26lt%3B%2Ftbody%26gt%3B%26lt%3B%2Ftable%26gt%3B%22%20style%3D%22text%3BwhiteSpace%3Dwrap%3Bhtml%3D1%3B%22%20vertex%3D%221%22%20parent%3D%221%22%3E%3CmxGeometry%20x%3D%22540%22%20y%3D%22110%22%20width%3D%2260%22%20height%3D%2250%22%20as%3D%22geometry%22%2F%3E%3C%2FmxCell%3E%3C%2Froot%3E%3C%2FmxGraphModel%3E&lt;/span&gt;&lt;span style=&quot;color: rgba(0, 0, 0, 0); font-family: monospace; font-size: 0px; text-wrap-mode: nowrap;&quot;&gt;%3CmxGraphModel%3E%3Croot%3E%3CmxCell%20id%3D%220%22%2F%3E%3CmxCell%20id%3D%221%22%20parent%3D%220%22%2F%3E%3CmxCell%20id%3D%222%22%20value%3D%22%26lt%3Btable%26gt%3B%26lt%3Btbody%26gt%3B%26lt%3Btr%26gt%3B%26lt%3Btd%20data-start%3D%26quot%3B2163%26quot%3B%20data-end%3D%26quot%3B2188%26quot%3B%20data-col-size%3D%26quot%3Bsm%26quot%3B%26gt%3B%26lt%3B%2Ftd%26gt%3B%26lt%3B%2Ftr%26gt%3B%26lt%3B%2Ftbody%26gt%3B%26lt%3B%2Ftable%26gt%3B%26lt%3Btable%26gt%3B%26lt%3Btbody%26gt%3B%26lt%3Btr%26gt%3B%26lt%3Btd%20data-start%3D%26quot%3B2188%26quot%3B%20data-end%3D%26quot%3B2214%26quot%3B%20data-col-size%3D%26quot%3Bsm%26quot%3B%26gt%3B1..*%26lt%3B%2Ftd%26gt%3B%26lt%3B%2Ftr%26gt%3B%26lt%3B%2Ftbody%26gt%3B%26lt%3B%2Ftable%26gt%3B%22%20style%3D%22text%3BwhiteSpace%3Dwrap%3Bhtml%3D1%3B%22%20vertex%3D%221%22%20parent%3D%221%22%3E%3CmxGeometry%20x%3D%22540%22%20y%3D%22110%22%20width%3D%2260%22%20height%3D%2250%22%20as%3D%22geometry%22%2F%3E%3C%2FmxCell%3E%3C%2Froot%3E%3C%2FmxGraphModel%3E&lt;/span&gt;&lt;/td&gt;&lt;/tr&gt;&lt;/tbody&gt;&lt;/table&gt;" style="text;whiteSpace=wrap;html=1;" vertex="1" parent="1">
          <mxGeometry x="420" y="475" width="60" height="50" as="geometry" />
        </mxCell>
        <mxCell id="1Xi1dz2Q9UGMM_O3Wy2a-10" value="&lt;table&gt;&lt;tbody&gt;&lt;tr&gt;&lt;td data-start=&quot;2163&quot; data-end=&quot;2188&quot; data-col-size=&quot;sm&quot;&gt;&lt;/td&gt;&lt;/tr&gt;&lt;/tbody&gt;&lt;/table&gt;&lt;table&gt;&lt;tbody&gt;&lt;tr&gt;&lt;td data-start=&quot;2188&quot; data-end=&quot;2214&quot; data-col-size=&quot;sm&quot;&gt;1&lt;span style=&quot;color: rgba(0, 0, 0, 0); font-family: monospace; font-size: 0px; text-wrap-mode: nowrap;&quot;&gt;%3CmxGraphModel%3E%3Croot%3E%3CmxCell%20id%3D%220%22%2F%3E%3CmxCell%20id%3D%221%22%20parent%3D%220%22%2F%3E%3CmxCell%20id%3D%222%22%20value%3D%22%26lt%3Btable%26gt%3B%26lt%3Btbody%26gt%3B%26lt%3Btr%26gt%3B%26lt%3Btd%20data-start%3D%26quot%3B2163%26quot%3B%20data-end%3D%26quot%3B2188%26quot%3B%20data-col-size%3D%26quot%3Bsm%26quot%3B%26gt%3B%26lt%3B%2Ftd%26gt%3B%26lt%3B%2Ftr%26gt%3B%26lt%3B%2Ftbody%26gt%3B%26lt%3B%2Ftable%26gt%3B%26lt%3Btable%26gt%3B%26lt%3Btbody%26gt%3B%26lt%3Btr%26gt%3B%26lt%3Btd%20data-start%3D%26quot%3B2188%26quot%3B%20data-end%3D%26quot%3B2214%26quot%3B%20data-col-size%3D%26quot%3Bsm%26quot%3B%26gt%3B1..*%26lt%3B%2Ftd%26gt%3B%26lt%3B%2Ftr%26gt%3B%26lt%3B%2Ftbody%26gt%3B%26lt%3B%2Ftable%26gt%3B%22%20style%3D%22text%3BwhiteSpace%3Dwrap%3Bhtml%3D1%3B%22%20vertex%3D%221%22%20parent%3D%221%22%3E%3CmxGeometry%20x%3D%22540%22%20y%3D%22110%22%20width%3D%2260%22%20height%3D%2250%22%20as%3D%22geometry%22%2F%3E%3C%2FmxCell%3E%3C%2Froot%3E%3C%2FmxGraphModel%3E&lt;/span&gt;&lt;span style=&quot;color: rgba(0, 0, 0, 0); font-family: monospace; font-size: 0px; text-wrap-mode: nowrap;&quot;&gt;%3CmxGraphModel%3E%3Croot%3E%3CmxCell%20id%3D%220%22%2F%3E%3CmxCell%20id%3D%221%22%20parent%3D%220%22%2F%3E%3CmxCell%20id%3D%222%22%20value%3D%22%26lt%3Btable%26gt%3B%26lt%3Btbody%26gt%3B%26lt%3Btr%26gt%3B%26lt%3Btd%20data-start%3D%26quot%3B2163%26quot%3B%20data-end%3D%26quot%3B2188%26quot%3B%20data-col-size%3D%26quot%3Bsm%26quot%3B%26gt%3B%26lt%3B%2Ftd%26gt%3B%26lt%3B%2Ftr%26gt%3B%26lt%3B%2Ftbody%26gt%3B%26lt%3B%2Ftable%26gt%3B%26lt%3Btable%26gt%3B%26lt%3Btbody%26gt%3B%26lt%3Btr%26gt%3B%26lt%3Btd%20data-start%3D%26quot%3B2188%26quot%3B%20data-end%3D%26quot%3B2214%26quot%3B%20data-col-size%3D%26quot%3Bsm%26quot%3B%26gt%3B1..*%26lt%3B%2Ftd%26gt%3B%26lt%3B%2Ftr%26gt%3B%26lt%3B%2Ftbody%26gt%3B%26lt%3B%2Ftable%26gt%3B%22%20style%3D%22text%3BwhiteSpace%3Dwrap%3Bhtml%3D1%3B%22%20vertex%3D%221%22%20parent%3D%221%22%3E%3CmxGeometry%20x%3D%22540%22%20y%3D%22110%22%20width%3D%2260%22%20height%3D%2250%22%20as%3D%22geometry%22%2F%3E%3C%2FmxCell%3E%3C%2Froot%3E%3C%2FmxGraphModel%3E&lt;/span&gt;&lt;/td&gt;&lt;/tr&gt;&lt;/tbody&gt;&lt;/table&gt;" style="text;whiteSpace=wrap;html=1;" vertex="1" parent="1">
          <mxGeometry x="420" y="425" width="60" height="50" as="geometry" />
        </mxCell>
      </root>
    </mxGraphModel>
  </diagram>
</mxfile>
